<svg xmlns="http://www.w3.org/2000/svg" viewBox="0 0 32 36">
  <polygon fill="#2d3748" points="3,3 8,3 17,19 15,19"/>
  <polygon fill="#2d3748" points="15,21 17,21 8,35 3,35"/>
  <polygon fill="#2d3748" points="24,5 27,5 18,19 15,19"/>
  <path fill="#2d3748" d="M15,21 L18,21 L25,31 C28,31 30,27 31,23 C31,18 30,13 27,9 L25,9 C28,13 29,18 28,23 C28,27 26,30 23,31 Z"/>
  <polygon fill="#2d3748" points="2,35 3,33 29,5 28,7"/>
  <polygon fill="#2d3748" points="28,1 32,0 31,5 29,5 30,3 28,3"/>
  <polygon fill="#4a5568" points="14,17 19,17 20,19 13,19"/>
  <polygon fill="#3d4656" points="13,20 20,20 21,22 12,22"/>
  <polygon fill="#2d3748" points="12,23 21,23 22,25 11,25"/>
</svg>
